Inknut Antiqua-Regular.ufo
<glyph name="asterisk" format="1">
  <advance width="698"/>
  <unicode hex="002A"/>
  <outline>
    <contour>
      <point x="104" y="624" type="line"/>
      <point x="30" y="503" type="line"/>
      <point x="171" y="445" type="line"/>
      <point x="328" y="516" type="line"/>
      <point x="328" y="536" type="line"/>
      <point x="110" y="536" type="line"/>
      <point x="135" y="497" type="line"/>
      <point x="135" y="624" type="line"/>
    </contour>
    <contour>
      <point x="312" y="787" type="line"/>
      <point x="170" y="790" type="line"/>
      <point x="191" y="639" type="line"/>
      <point x="331" y="539" type="line"/>
      <point x="348" y="549" type="line"/>
      <point x="239" y="738" type="line"/>
      <point x="218" y="696" type="line"/>
      <point x="328" y="760" type="line"/>
    </contour>
    <contour>
      <point x="557" y="688" type="line"/>
      <point x="489" y="813" type="line"/>
      <point x="369" y="719" type="line"/>
      <point x="352" y="548" type="line"/>
      <point x="369" y="538" type="line"/>
      <point x="478" y="727" type="line"/>
      <point x="432" y="724" type="line"/>
      <point x="542" y="661" type="line"/>
    </contour>
    <contour>
      <point x="594" y="426" type="line"/>
      <point x="668" y="548" type="line"/>
      <point x="527" y="605" type="line"/>
      <point x="370" y="534" type="line"/>
      <point x="370" y="514" type="line"/>
      <point x="588" y="514" type="line"/>
      <point x="563" y="553" type="line"/>
      <point x="563" y="426" type="line"/>
    </contour>
    <contour>
      <point x="386" y="263" type="line"/>
      <point x="528" y="260" type="line"/>
      <point x="507" y="411" type="line"/>
      <point x="367" y="511" type="line"/>
      <point x="350" y="501" type="line"/>
      <point x="459" y="313" type="line"/>
      <point x="480" y="354" type="line"/>
      <point x="370" y="290" type="line"/>
    </contour>
    <contour>
      <point x="141" y="362" type="line"/>
      <point x="209" y="238" type="line"/>
      <point x="329" y="331" type="line"/>
      <point x="346" y="503" type="line"/>
      <point x="329" y="512" type="line"/>
      <point x="220" y="324" type="line"/>
      <point x="266" y="326" type="line"/>
      <point x="156" y="389" type="line"/>
    </contour>
  </outline>
</glyph>
<glyph name="hyphen" format="1">
  <advance width="513"/>
  <unicode hex="002D"/>
  <outline>
    <contour>
      <point x="433" y="319" type="line"/>
      <point x="433" y="349" type="line"/>
      <point x="120" y="349" type="line"/>
      <point x="80" y="298" type="line"/>
      <point x="80" y="268" type="line"/>
      <point x="393" y="268" type="line"/>
    </contour>
  </outline>
</glyph>
<glyph name="zero" format="1">
  <advance width="751"/>
  <unicode hex="0030"/>
  <outline>
    <contour>
      <point x="264" y="581"/>
      <point x="70" y="442"/>
      <point x="70" y="268" type="curve" smooth="yes"/>
      <point x="70" y="112"/>
      <point x="182" y="-10"/>
      <point x="340" y="-10" type="curve" smooth="yes"/>
      <point x="487" y="-10"/>
      <point x="681" y="129"/>
      <point x="681" y="303" type="curve" smooth="yes"/>
      <point x="681" y="458"/>
      <point x="570" y="581"/>
      <point x="411" y="581" type="curve" smooth="yes"/>
    </contour>
    <contour>
      <point x="488" y="497"/>
      <point x="551" y="384"/>
      <point x="551" y="256" type="curve" smooth="yes"/>
      <point x="551" y="136"/>
      <point x="502" y="74"/>
      <point x="398" y="74" type="curve" smooth="yes"/>
      <point x="263" y="74"/>
      <point x="200" y="188"/>
      <point x="200" y="316" type="curve" smooth="yes"/>
      <point x="200" y="435"/>
      <point x="249" y="497"/>
      <point x="353" y="497" type="curve" smooth="yes"/>
    </contour>
  </outline>
</glyph>
<glyph name="E" format="1">
  <advance width="814"/>
  <unicode hex="0045"/>
  <outline>
    <contour>
      <point x="60" y="31" type="line"/>
      <point x="60" y="0" type="line"/>
      <point x="201" y="0" type="line"/>
      <point x="221" y="40" type="line"/>
      <point x="166" y="114" type="line"/>
    </contour>
    <contour>
      <point x="154" y="786" type="line"/>
      <point x="154" y="0" type="line"/>
      <point x="279" y="0" type="line"/>
      <point x="279" y="786" type="line"/>
    </contour>
    <contour>
      <point x="259" y="755" type="line"/>
      <point x="259" y="786" type="line"/>
      <point x="70" y="786" type="line"/>
      <point x="50" y="746" type="line"/>
      <point x="268" y="672" type="line"/>
    </contour>
    <contour>
      <point x="706" y="45" type="line"/>
      <point x="218" y="45" type="line"/>
      <point x="218" y="0" type="line"/>
      <point x="706" y="0" type="line"/>
    </contour>
    <contour>
      <point x="714" y="-18" type="line"/>
      <point x="714" y="232" type="line"/>
      <point x="684" y="242" type="line"/>
      <point x="541" y="30" type="line"/>
      <point x="639" y="7" type="line"/>
    </contour>
    <contour>
      <point x="696" y="786" type="line"/>
      <point x="218" y="786" type="line"/>
      <point x="218" y="741" type="line"/>
      <point x="696" y="741" type="line"/>
    </contour>
    <contour>
      <point x="531" y="776" type="line"/>
      <point x="674" y="564" type="line"/>
      <point x="704" y="574" type="line"/>
      <point x="704" y="804" type="line"/>
      <point x="629" y="779" type="line"/>
    </contour>
    <contour>
      <point x="496" y="424" type="line"/>
      <point x="218" y="424" type="line"/>
      <point x="218" y="379" type="line"/>
      <point x="496" y="379" type="line"/>
    </contour>
    <contour>
      <point x="500" y="228" type="line"/>
      <point x="540" y="248" type="line"/>
      <point x="540" y="552" type="line"/>
      <point x="509" y="552" type="line"/>
      <point x="426" y="406" type="line"/>
    </contour>
    <contour>
      <point x="706" y="0" type="move" name="ogonek"/>
    </contour>
    <contour>
      <point x="407" y="0" type="move" name="bottom"/>
    </contour>
    <contour>
      <point x="407" y="786" type="move" name="top"/>
    </contour>
  </outline>
</glyph>
<glyph name="H" format="1">
  <advance width="954"/>
  <unicode hex="0048"/>
  <outline>
    <contour>
      <point x="60" y="31" type="line"/>
      <point x="60" y="0" type="line"/>
      <point x="364" y="0" type="line"/>
      <point x="384" y="40" type="line"/>
      <point x="166" y="114" type="line"/>
    </contour>
    <contour>
      <point x="154" y="786" type="line"/>
      <point x="154" y="0" type="line"/>
      <point x="279" y="0" type="line"/>
      <point x="279" y="786" type="line"/>
    </contour>
    <contour>
      <point x="374" y="755" type="line"/>
      <point x="374" y="786" type="line"/>
      <point x="70" y="786" type="line"/>
      <point x="50" y="746" type="line"/>
      <point x="268" y="672" type="line"/>
    </contour>
    <contour>
      <point x="580" y="31" type="line"/>
      <point x="580" y="0" type="line"/>
      <point x="884" y="0" type="line"/>
      <point x="904" y="40" type="line"/>
      <point x="686" y="114" type="line"/>
    </contour>
    <contour>
      <point x="674" y="786" type="line"/>
      <point x="674" y="0" type="line"/>
      <point x="799" y="0" type="line"/>
      <point x="799" y="786" type="line"/>
    </contour>
    <contour>
      <point x="894" y="755" type="line"/>
      <point x="894" y="786" type="line"/>
      <point x="590" y="786" type="line"/>
      <point x="570" y="746" type="line"/>
      <point x="788" y="672" type="line"/>
    </contour>
    <contour>
      <point x="736" y="414" type="line"/>
      <point x="218" y="414" type="line"/>
      <point x="218" y="369" type="line"/>
      <point x="736" y="369" type="line"/>
    </contour>
  </outline>
</glyph>
<glyph name="R" format="1">
  <advance width="809"/>
  <unicode hex="0052"/>
  <outline>
    <contour>
      <point x="379" y="796"/>
      <point x="332" y="786"/>
      <point x="186" y="786" type="curve"/>
      <point x="203" y="605" type="line"/>
      <point x="241" y="683"/>
      <point x="305" y="732"/>
      <point x="382" y="732" type="curve" smooth="yes"/>
      <point x="500" y="732"/>
      <point x="554" y="647"/>
      <point x="554" y="548" type="curve" smooth="yes"/>
      <point x="554" y="467"/>
      <point x="497" y="419"/>
      <point x="407" y="419" type="curve" smooth="yes"/>
      <point x="351" y="419" type="line"/>
      <point x="336" y="389" type="line"/>
      <point x="383" y="355" type="line"/>
      <point x="510" y="355"/>
      <point x="689" y="462"/>
      <point x="689" y="595" type="curve" smooth="yes"/>
      <point x="689" y="705"/>
      <point x="598" y="796"/>
      <point x="460" y="796" type="curve" smooth="yes"/>
    </contour>
    <contour>
      <point x="60" y="31" type="line"/>
      <point x="60" y="0" type="line"/>
      <point x="364" y="0" type="line"/>
      <point x="384" y="40" type="line"/>
      <point x="166" y="114" type="line"/>
    </contour>
    <contour>
      <point x="154" y="786" type="line"/>
      <point x="154" y="0" type="line"/>
      <point x="279" y="0" type="line"/>
      <point x="279" y="786" type="line"/>
    </contour>
    <contour>
      <point x="383" y="355" type="line"/>
      <point x="603" y="0" type="line"/>
      <point x="789" y="0" type="line"/>
      <point x="809" y="40" type="line"/>
      <point x="656" y="114" type="line"/>
      <point x="726" y="40" type="line"/>
      <point x="536" y="347" type="line"/>
      <point x="395" y="395" type="line"/>
    </contour>
    <contour>
      <point x="70" y="786" type="line"/>
      <point x="50" y="746" type="line"/>
      <point x="186" y="702" type="line"/>
      <point x="230" y="755" type="line"/>
      <point x="230" y="786" type="line"/>
    </contour>
    <contour>
      <point x="380" y="786" type="move" name="top"/>
    </contour>
    <contour>
      <point x="440" y="0" type="move" name="bottom"/>
    </contour>
  </outline>
</glyph>
<glyph name="Y" format="1">
  <advance width="803"/>
  <unicode hex="0059"/>
  <outline>
    <contour>
      <point x="362" y="241" type="line"/>
      <point x="449" y="329" type="line"/>
      <point x="208" y="721" type="line"/>
      <point x="36" y="768" type="line"/>
    </contour>
    <contour>
      <point x="20" y="786" type="line"/>
      <point x="0" y="746" type="line"/>
      <point x="175" y="640" type="line"/>
      <point x="324" y="755" type="line"/>
      <point x="324" y="786" type="line"/>
    </contour>
    <contour>
      <point x="663" y="721" type="line"/>
      <point x="386" y="288" type="line"/>
      <point x="428" y="246" type="line"/>
      <point x="753" y="755" type="line"/>
    </contour>
    <contour>
      <point x="499" y="786" type="line"/>
      <point x="479" y="746" type="line"/>
      <point x="667" y="672" type="line"/>
      <point x="803" y="755" type="line"/>
      <point x="803" y="786" type="line"/>
    </contour>
    <contour>
      <point x="242" y="31" type="line"/>
      <point x="242" y="0" type="line"/>
      <point x="546" y="0" type="line"/>
      <point x="566" y="40" type="line"/>
      <point x="348" y="114" type="line"/>
    </contour>
    <contour>
      <point x="336" y="357" type="line"/>
      <point x="336" y="0" type="line"/>
      <point x="461" y="0" type="line"/>
      <point x="461" y="330" type="line"/>
    </contour>
    <contour>
      <point x="402" y="786" type="move" name="top"/>
    </contour>
  </outline>
</glyph>
<glyph name="asciicircum" format="1">
  <advance width="597"/>
  <unicode hex="005E"/>
  <outline>
    <contour>
      <point x="244" y="674" type="line"/>
      <point x="50" y="314" type="line"/>
      <point x="50" y="283" type="line"/>
      <point x="94" y="283" type="line"/>
      <point x="301" y="667" type="line"/>
      <point x="257" y="644" type="line"/>
      <point x="435" y="283" type="line"/>
      <point x="547" y="283" type="line"/>
      <point x="547" y="323" type="line"/>
      <point x="348" y="725" type="line"/>
    </contour>
  </outline>
</glyph>
<glyph name="underscore" format="1">
  <advance width="498"/>
  <unicode hex="005F"/>
  <outline>
    <contour>
      <point x="458" y="-93" type="line"/>
      <point x="40" y="-93" type="line"/>
      <point x="40" y="-134" type="line"/>
      <point x="458" y="-134" type="line"/>
    </contour>
  </outline>
</glyph>
<glyph name="l" format="1">
  <advance width="369"/>
  <unicode hex="006C"/>
  <outline>
    <contour>
      <point x="124" y="779" type="line"/>
      <point x="124" y="0" type="line"/>
      <point x="244" y="0" type="line"/>
      <point x="244" y="873" type="line"/>
    </contour>
    <contour>
      <point x="35" y="31" type="line"/>
      <point x="35" y="0" type="line"/>
      <point x="314" y="0" type="line"/>
      <point x="334" y="40" type="line"/>
      <point x="141" y="114" type="line"/>
    </contour>
    <contour>
      <point x="206" y="873" type="line"/>
      <point x="35" y="809" type="line"/>
      <point x="35" y="778" type="line"/>
      <point x="207" y="658" type="line"/>
      <point x="244" y="873" type="line"/>
    </contour>
    <contour>
      <point x="180" y="823" type="move" name="top"/>
    </contour>
    <contour>
      <point x="180" y="0" type="move" name="bottom"/>
    </contour>
    <contour>
      <point x="324" y="531" type="move" name="topright"/>
    </contour>
  </outline>
</glyph>
<glyph name="p" format="1">
  <advance width="735"/>
  <unicode hex="0070"/>
  <outline>
    <contour>
      <point x="453" y="541"/>
      <point x="430" y="540"/>
      <point x="402" y="533" type="curve"/>
      <point x="225" y="393" type="line"/>
      <point x="251" y="360" type="line"/>
      <point x="331" y="435"/>
      <point x="377" y="446"/>
      <point x="424" y="446" type="curve" smooth="yes"/>
      <point x="498" y="446"/>
      <point x="535" y="347"/>
      <point x="535" y="235" type="curve" smooth="yes"/>
      <point x="535" y="130"/>
      <point x="498" y="74"/>
      <point x="422" y="74" type="curve" smooth="yes"/>
      <point x="315" y="74"/>
      <point x="264" y="134"/>
      <point x="264" y="203" type="curve"/>
      <point x="164" y="248" type="line"/>
      <point x="164" y="105"/>
      <point x="247" y="-10"/>
      <point x="364" y="-10" type="curve" smooth="yes"/>
      <point x="495" y="-10"/>
      <point x="665" y="121"/>
      <point x="665" y="283" type="curve" smooth="yes"/>
      <point x="665" y="427"/>
      <point x="585" y="541"/>
      <point x="475" y="541" type="curve" smooth="yes"/>
    </contour>
    <contour>
      <point x="55" y="-223" type="line"/>
      <point x="55" y="-254" type="line"/>
      <point x="384" y="-254" type="line"/>
      <point x="404" y="-214" type="line"/>
      <point x="161" y="-140" type="line"/>
    </contour>
    <contour>
      <point x="144" y="-254" type="line"/>
      <point x="264" y="-254" type="line"/>
      <point x="264" y="399" type="line"/>
      <point x="144" y="456" type="line"/>
    </contour>
    <contour>
      <point x="55" y="466" type="line"/>
      <point x="55" y="435" type="line"/>
      <point x="227" y="335" type="line"/>
      <point x="264" y="399" type="line"/>
      <point x="226" y="550" type="line"/>
    </contour>
  </outline>
</glyph>
<glyph name="t" format="1">
  <advance width="456"/>
  <unicode hex="0074"/>
  <outline>
    <contour>
      <point x="124" y="168" type="line" smooth="yes"/>
      <point x="124" y="47"/>
      <point x="172" y="-10"/>
      <point x="284" y="-10" type="curve" smooth="yes"/>
      <point x="299" y="-10"/>
      <point x="320" y="-9"/>
      <point x="340" y="-2" type="curve"/>
      <point x="441" y="78" type="line"/>
      <point x="411" y="116" type="line"/>
      <point x="371" y="84"/>
      <point x="349" y="75"/>
      <point x="322" y="75" type="curve" smooth="yes"/>
      <point x="272" y="75"/>
      <point x="244" y="99"/>
      <point x="244" y="156" type="curve" smooth="yes"/>
      <point x="244" y="722" type="line"/>
      <point x="206" y="722" type="line"/>
      <point x="124" y="566" type="line"/>
    </contour>
    <contour>
      <point x="424" y="501" type="line"/>
      <point x="185" y="501" type="line"/>
      <point x="206" y="722" type="line"/>
      <point x="16" y="501" type="line"/>
      <point x="16" y="460" type="line"/>
      <point x="424" y="460" type="line"/>
    </contour>
    <contour>
      <point x="324" y="531" type="move" name="topright"/>
    </contour>
    <contour>
      <point x="261" y="0" type="move" name="bottom"/>
    </contour>
    <contour>
      <point x="220" y="376" type="move" name="centre"/>
    </contour>
  </outline>
</glyph>
<glyph name="y" format="1">
  <advance width="620"/>
  <unicode hex="0079"/>
  <outline>
    <contour>
      <point x="5" y="466" type="line"/>
      <point x="5" y="435" type="line"/>
      <point x="177" y="335" type="line"/>
      <point x="71" y="446" type="line"/>
      <point x="241" y="34" type="line"/>
      <point x="223" y="109" type="line"/>
      <point x="228" y="-37"/>
      <point x="204" y="-104"/>
      <point x="84" y="-234" type="curve"/>
      <point x="122" y="-264" type="line"/>
      <point x="330" y="0" type="line"/>
      <point x="583" y="500" type="line"/>
      <point x="583" y="531" type="line"/>
      <point x="364" y="531" type="line"/>
      <point x="344" y="491" type="line"/>
      <point x="507" y="373" type="line"/>
      <point x="512" y="466" type="line"/>
      <point x="310" y="47" type="line"/>
      <point x="350" y="68" type="line"/>
      <point x="214" y="399" type="line"/>
      <point x="176" y="550" type="line"/>
    </contour>
    <contour>
      <point x="300" y="531" type="move" name="top"/>
    </contour>
  </outline>
</glyph>
<glyph name="z" format="1">
  <advance width="611"/>
  <unicode hex="007A"/>
  <outline>
    <contour>
      <point x="83" y="349" type="line"/>
      <point x="113" y="339" type="line"/>
      <point x="195" y="486" type="line"/>
      <point x="105" y="411" type="line"/>
      <point x="436" y="411" type="line"/>
      <point x="499" y="514" type="line"/>
      <point x="70" y="38" type="line"/>
      <point x="70" y="0" type="line"/>
      <point x="473" y="0" type="line"/>
      <point x="528" y="-18" type="line"/>
      <point x="528" y="192" type="line"/>
      <point x="498" y="202" type="line"/>
      <point x="418" y="49" type="line"/>
      <point x="516" y="120" type="line"/>
      <point x="175" y="120" type="line"/>
      <point x="123" y="26" type="line"/>
      <point x="541" y="493" type="line"/>
      <point x="541" y="531" type="line"/>
      <point x="138" y="531" type="line"/>
      <point x="83" y="549" type="line"/>
    </contour>
    <contour>
      <point x="311" y="531" type="move" name="top"/>
    </contour>
  </outline>
</glyph>
<glyph name="asciitilde" format="1">
  <advance width="615"/>
  <unicode hex="007E"/>
  <outline>
    <contour>
      <point x="141" y="415"/>
      <point x="82" y="350"/>
      <point x="50" y="279" type="curve"/>
      <point x="80" y="241" type="line"/>
      <point x="105" y="279"/>
      <point x="136" y="308"/>
      <point x="165" y="308" type="curve" smooth="yes"/>
      <point x="250" y="308"/>
      <point x="328" y="204"/>
      <point x="423" y="204" type="curve" smooth="yes"/>
      <point x="474" y="204"/>
      <point x="533" y="269"/>
      <point x="565" y="340" type="curve"/>
      <point x="535" y="378" type="line"/>
      <point x="510" y="340"/>
      <point x="479" y="311"/>
      <point x="450" y="311" type="curve" smooth="yes"/>
      <point x="365" y="311"/>
      <point x="287" y="415"/>
      <point x="192" y="415" type="curve" smooth="yes"/>
    </contour>
  </outline>
</glyph>
<glyph name="exclamdown" format="1">
  <advance width="349"/>
  <unicode hex="00A1"/>
  <outline>
    <contour>
      <point x="148" y="289" type="line"/>
      <point x="95" y="-254" type="line"/>
      <point x="133" y="-254" type="line"/>
      <point x="269" y="-204" type="line"/>
      <point x="269" y="-173" type="line"/>
      <point x="208" y="289" type="line"/>
    </contour>
    <component base="period" xOffset="13" yOffset="386"/>
  </outline>
</glyph>
<glyph name="currency" format="1">
  <advance width="898"/>
  <unicode hex="00A4"/>
  <outline>
    <contour>
      <point x="337" y="686"/>
      <point x="134" y="551"/>
      <point x="134" y="375" type="curve" smooth="yes"/>
      <point x="134" y="218"/>
      <point x="246" y="100"/>
      <point x="413" y="100" type="curve" smooth="yes"/>
      <point x="560" y="100"/>
      <point x="763" y="235"/>
      <point x="763" y="410" type="curve" smooth="yes"/>
      <point x="763" y="567"/>
      <point x="652" y="686"/>
      <point x="484" y="686" type="curve" smooth="yes"/>
    </contour>
    <contour>
      <point x="579" y="602"/>
      <point x="648" y="494"/>
      <point x="648" y="363" type="curve" smooth="yes"/>
      <point x="648" y="262"/>
      <point x="569" y="184"/>
      <point x="471" y="184" type="curve" smooth="yes"/>
      <point x="318" y="184"/>
      <point x="249" y="294"/>
      <point x="249" y="423" type="curve" smooth="yes"/>
      <point x="249" y="524"/>
      <point x="328" y="602"/>
      <point x="426" y="602" type="curve" smooth="yes"/>
    </contour>
    <contour>
      <point x="240" y="215" type="line"/>
      <point x="70" y="45" type="line"/>
      <point x="101" y="14" type="line"/>
      <point x="273" y="186" type="line"/>
    </contour>
    <contour>
      <point x="615" y="195" type="line"/>
      <point x="797" y="14" type="line"/>
      <point x="828" y="45" type="line"/>
      <point x="649" y="224" type="line"/>
    </contour>
    <contour>
      <point x="290" y="582" type="line"/>
      <point x="101" y="771" type="line"/>
      <point x="70" y="740" type="line"/>
      <point x="258" y="552" type="line"/>
    </contour>
    <contour>
      <point x="652" y="565" type="line"/>
      <point x="828" y="740" type="line"/>
      <point x="797" y="771" type="line"/>
      <point x="623" y="597" type="line"/>
    </contour>
  </outline>
</glyph>
<glyph name="yen" format="1">
  <advance width="803"/>
  <unicode hex="00A5"/>
  <outline>
    <contour>
      <point x="87" y="342" type="line"/>
      <point x="66" y="301" type="line"/>
      <point x="711" y="301" type="line"/>
      <point x="732" y="342" type="line"/>
    </contour>
    <contour>
      <point x="87" y="202" type="line"/>
      <point x="66" y="161" type="line"/>
      <point x="711" y="161" type="line"/>
      <point x="732" y="202" type="line"/>
    </contour>
    <component base="Y"/>
  </outline>
</glyph>
<glyph name="brokenbar" format="1">
  <advance width="373"/>
  <unicode hex="00A6"/>
  <outline>
    <contour>
      <point x="159" y="986" type="line"/>
      <point x="159" y="523" type="line"/>
      <point x="214" y="523" type="line"/>
      <point x="214" y="986" type="line"/>
    </contour>
    <contour>
      <point x="159" y="263" type="line"/>
      <point x="159" y="-200" type="line"/>
      <point x="214" y="-200" type="line"/>
      <point x="214" y="263" type="line"/>
    </contour>
  </outline>
</glyph>
<glyph name="logicalnot" format="1">
  <advance width="578"/>
  <unicode hex="00AC"/>
  <outline>
    <contour>
      <point x="447" y="309" type="line"/>
      <point x="447" y="85" type="line"/>
      <point x="488" y="85" type="line"/>
      <point x="488" y="309" type="line"/>
    </contour>
    <component base="minus"/>
  </outline>
</glyph>
<glyph name="macron" format="1">
  <advance width="600"/>
  <unicode hex="00AF"/>
  <outline>
    <contour>
      <point x="513" y="794" type="line"/>
      <point x="95" y="794" type="line"/>
      <point x="95" y="749" type="line"/>
      <point x="513" y="749" type="line"/>
    </contour>
    <contour>
      <point x="304" y="796" type="move" name="_centre"/>
    </contour>
    <contour>
      <point x="513" y="794" type="move" name="_topright"/>
    </contour>
    <contour>
      <point x="304" y="531" type="move" name="_top"/>
    </contour>
  </outline>
</glyph>
<glyph name="AE" format="1">
  <advance width="1100"/>
  <unicode hex="00C6"/>
  <outline>
    <contour>
      <point x="-3" y="31" type="line"/>
      <point x="-3" y="0" type="line"/>
      <point x="271" y="0" type="line"/>
      <point x="291" y="40" type="line"/>
      <point x="103" y="114" type="line"/>
    </contour>
    <contour>
      <point x="444" y="754" type="line"/>
      <point x="39" y="31" type="line"/>
      <point x="115" y="65" type="line"/>
      <point x="506" y="759" type="line"/>
    </contour>
    <contour>
      <point x="306" y="786" type="line"/>
      <point x="286" y="746" type="line"/>
      <point x="445" y="692" type="line"/>
      <point x="495" y="786" type="line"/>
    </contour>
    <contour>
      <point x="534" y="786" type="line"/>
      <point x="534" y="741" type="line"/>
      <point x="982" y="741" type="line"/>
      <point x="982" y="786" type="line"/>
    </contour>
    <contour>
      <point x="915" y="779" type="line"/>
      <point x="817" y="776" type="line"/>
      <point x="960" y="564" type="line"/>
      <point x="990" y="574" type="line"/>
      <point x="990" y="804" type="line"/>
    </contour>
    <contour>
      <point x="470" y="786" type="line"/>
      <point x="470" y="0" type="line"/>
      <point x="595" y="0" type="line"/>
      <point x="595" y="786" type="line"/>
    </contour>
    <contour>
      <point x="282" y="424" type="line"/>
      <point x="262" y="379" type="line"/>
      <point x="782" y="379" type="line"/>
      <point x="782" y="424" type="line"/>
    </contour>
    <contour>
      <point x="795" y="552" type="line"/>
      <point x="712" y="406" type="line"/>
      <point x="786" y="228" type="line"/>
      <point x="826" y="248" type="line"/>
      <point x="826" y="552" type="line"/>
    </contour>
    <contour>
      <point x="376" y="31" type="line"/>
      <point x="376" y="0" type="line"/>
      <point x="517" y="0" type="line"/>
      <point x="537" y="40" type="line"/>
      <point x="482" y="114" type="line"/>
    </contour>
    <contour>
      <point x="534" y="45" type="line"/>
      <point x="534" y="0" type="line"/>
      <point x="992" y="0" type="line"/>
      <point x="992" y="45" type="line"/>
    </contour>
    <contour>
      <point x="827" y="30" type="line"/>
      <point x="925" y="7" type="line"/>
      <point x="1000" y="-18" type="line"/>
      <point x="1000" y="232" type="line"/>
      <point x="970" y="242" type="line"/>
    </contour>
  </outline>
</glyph>
<glyph name="multiply" format="1">
  <advance width="509"/>
  <unicode hex="00D7"/>
  <outline>
    <contour>
      <point x="469" y="123" type="line"/>
      <point x="440" y="94" type="line"/>
      <point x="40" y="494" type="line"/>
      <point x="69" y="523" type="line"/>
    </contour>
    <contour>
      <point x="469" y="494" type="line"/>
      <point x="69" y="94" type="line"/>
      <point x="40" y="123" type="line"/>
      <point x="440" y="523" type="line"/>
    </contour>
  </outline>
</glyph>
<glyph name="germandbls" format="1">
  <advance width="779"/>
  <unicode hex="00DF"/>
  <outline>
    <contour>
      <point x="295" y="883"/>
      <point x="143" y="752"/>
      <point x="143" y="590" type="curve" smooth="yes"/>
      <point x="143" y="0" type="line"/>
      <point x="263" y="0" type="line"/>
      <point x="263" y="638" type="line" smooth="yes"/>
      <point x="263" y="743"/>
      <point x="294" y="799"/>
      <point x="356" y="799" type="curve" smooth="yes"/>
      <point x="432" y="799"/>
      <point x="510" y="708"/>
      <point x="510" y="659" type="curve" smooth="yes"/>
      <point x="510" y="581"/>
      <point x="360" y="521"/>
      <point x="360" y="417" type="curve" smooth="yes"/>
      <point x="360" y="277"/>
      <point x="597" y="231"/>
      <point x="597" y="128" type="curve" smooth="yes"/>
      <point x="597" y="87"/>
      <point x="576" y="50"/>
      <point x="543" y="50" type="curve" smooth="yes"/>
      <point x="491" y="50"/>
      <point x="431" y="93"/>
      <point x="393" y="171" type="curve"/>
      <point x="355" y="171" type="line"/>
      <point x="355" y="17" type="line"/>
      <point x="387" y="4"/>
      <point x="481" y="-10"/>
      <point x="538" y="-10" type="curve" smooth="yes"/>
      <point x="607" y="-10"/>
      <point x="710" y="100"/>
      <point x="710" y="184" type="curve" smooth="yes"/>
      <point x="710" y="323"/>
      <point x="473" y="363"/>
      <point x="473" y="473" type="curve" smooth="yes"/>
      <point x="473" y="560"/>
      <point x="623" y="605"/>
      <point x="623" y="715" type="curve" smooth="yes"/>
      <point x="623" y="798"/>
      <point x="486" y="883"/>
      <point x="414" y="883" type="curve" smooth="yes"/>
    </contour>
    <contour>
      <point x="54" y="31" type="line"/>
      <point x="54" y="0" type="line"/>
      <point x="213" y="0" type="line"/>
      <point x="233" y="40" type="line"/>
      <point x="160" y="114" type="line"/>
    </contour>
    <contour>
      <point x="25" y="501" type="line"/>
      <point x="25" y="460" type="line"/>
      <point x="217" y="460" type="line"/>
      <point x="217" y="501" type="line"/>
    </contour>
  </outline>
</glyph>
<glyph name="ae" format="1">
  <advance width="916"/>
  <unicode hex="00E6"/>
  <outline>
    <contour>
      <point x="539" y="541"/>
      <point x="375" y="410"/>
      <point x="375" y="248" type="curve" smooth="yes"/>
      <point x="375" y="104"/>
      <point x="467" y="-10"/>
      <point x="590" y="-10" type="curve" smooth="yes"/>
      <point x="617" y="-10"/>
      <point x="651" y="-9"/>
      <point x="686" y="-2" type="curve"/>
      <point x="844" y="124" type="line"/>
      <point x="814" y="162" type="line"/>
      <point x="739" y="101"/>
      <point x="684" y="75"/>
      <point x="648" y="75" type="curve" smooth="yes"/>
      <point x="553" y="75"/>
      <point x="505" y="178"/>
      <point x="505" y="296" type="curve" smooth="yes"/>
      <point x="505" y="401"/>
      <point x="539" y="457"/>
      <point x="608" y="457" type="curve" smooth="yes"/>
      <point x="695" y="457"/>
      <point x="698" y="385"/>
      <point x="712" y="293" type="curve"/>
      <point x="747" y="309" type="line"/>
      <point x="468" y="309" type="line"/>
      <point x="468" y="268" type="line"/>
      <point x="846" y="268" type="line"/>
      <point x="846" y="428"/>
      <point x="783" y="541"/>
      <point x="666" y="541" type="curve" smooth="yes"/>
    </contour>
    <contour>
      <point x="160" y="272" type="line"/>
      <point x="96" y="231"/>
      <point x="60" y="184"/>
      <point x="60" y="136" type="curve" smooth="yes"/>
      <point x="60" y="67"/>
      <point x="98" y="-10"/>
      <point x="223" y="-10" type="curve" smooth="yes"/>
      <point x="246" y="-10"/>
      <point x="279" y="-8"/>
      <point x="303" y="-2" type="curve"/>
      <point x="470" y="138" type="line"/>
      <point x="420" y="161" type="line"/>
      <point x="346" y="86"/>
      <point x="297" y="75"/>
      <point x="265" y="75" type="curve" smooth="yes"/>
      <point x="215" y="75"/>
      <point x="185" y="118"/>
      <point x="185" y="165" type="curve" smooth="yes"/>
      <point x="185" y="189"/>
      <point x="190" y="210"/>
      <point x="209" y="232" type="curve"/>
      <point x="401" y="232" type="line"/>
      <point x="401" y="272" type="line"/>
    </contour>
    <contour>
      <point x="288" y="541"/>
      <point x="254" y="540"/>
      <point x="219" y="533" type="curve"/>
      <point x="75" y="419" type="line"/>
      <point x="105" y="381" type="line"/>
      <point x="178" y="442"/>
      <point x="226" y="456"/>
      <point x="257" y="456" type="curve" smooth="yes"/>
      <point x="324" y="456"/>
      <point x="376" y="429"/>
      <point x="376" y="337" type="curve" smooth="yes"/>
      <point x="376" y="258" type="line"/>
      <point x="496" y="216" type="line"/>
      <point x="496" y="367" type="line" smooth="yes"/>
      <point x="496" y="481"/>
      <point x="429" y="541"/>
      <point x="315" y="541" type="curve" smooth="yes"/>
    </contour>
  </outline>
</glyph>
<glyph name="eth" format="1">
  <advance width="671"/>
  <unicode hex="00F0"/>
  <outline>
    <contour>
      <point x="544" y="883" type="line"/>
      <point x="98" y="613" type="line"/>
      <point x="119" y="577" type="line"/>
      <point x="566" y="847" type="line"/>
    </contour>
    <contour>
      <point x="545" y="457" type="line"/>
      <point x="545" y="504" type="line"/>
      <point x="513" y="523"/>
      <point x="426" y="541"/>
      <point x="371" y="541" type="curve" smooth="yes"/>
      <point x="222" y="541"/>
      <point x="70" y="393"/>
      <point x="70" y="248" type="curve" smooth="yes"/>
      <point x="70" y="101"/>
      <point x="169" y="-10"/>
      <point x="300" y="-10" type="curve" smooth="yes"/>
      <point x="460" y="-10"/>
      <point x="601" y="155"/>
      <point x="601" y="343" type="curve" smooth="yes"/>
      <point x="601" y="565"/>
      <point x="408" y="812"/>
      <point x="178" y="883" type="curve"/>
      <point x="62" y="840" type="line"/>
      <point x="62" y="809" type="line"/>
      <point x="302" y="745"/>
      <point x="476" y="526"/>
      <point x="476" y="286" type="curve" smooth="yes"/>
      <point x="476" y="140"/>
      <point x="439" y="74"/>
      <point x="358" y="74" type="curve" smooth="yes"/>
      <point x="263" y="74"/>
      <point x="200" y="162"/>
      <point x="200" y="296" type="curve" smooth="yes"/>
      <point x="200" y="403"/>
      <point x="238" y="457"/>
      <point x="313" y="457" type="curve" smooth="yes"/>
    </contour>
  </outline>
</glyph>
<glyph name="oslash" format="1">
  <advance width="671"/>
  <unicode hex="00F8"/>
  <outline>
    <contour>
      <point x="549" y="678" type="line"/>
      <point x="85" y="-126" type="line"/>
      <point x="121" y="-147" type="line"/>
      <point x="585" y="657" type="line"/>
    </contour>
    <component base="o"/>
  </outline>
</glyph>
<glyph name="Hbar" format="1">
  <advance width="954"/>
  <unicode hex="0126"/>
  <outline>
    <contour>
      <point x="954" y="594" type="line"/>
      <point x="0" y="594" type="line"/>
      <point x="0" y="549" type="line"/>
      <point x="954" y="549" type="line"/>
    </contour>
    <component base="H"/>
  </outline>
</glyph>
<glyph name="hbar" format="1">
  <advance width="699"/>
  <unicode hex="0127"/>
  <outline>
    <contour>
      <point x="415" y="541"/>
      <point x="399" y="540"/>
      <point x="381" y="533" type="curve"/>
      <point x="204" y="393" type="line"/>
      <point x="234" y="370" type="line"/>
      <point x="304" y="427"/>
      <point x="346" y="436"/>
      <point x="386" y="436" type="curve" smooth="yes"/>
      <point x="444" y="436"/>
      <point x="464" y="411"/>
      <point x="464" y="337" type="curve" smooth="yes"/>
      <point x="464" y="0" type="line"/>
      <point x="584" y="0" type="line"/>
      <point x="584" y="387" type="line" smooth="yes"/>
      <point x="584" y="481"/>
      <point x="527" y="541"/>
      <point x="436" y="541" type="curve" smooth="yes"/>
    </contour>
    <contour>
      <point x="475" y="31" type="line"/>
      <point x="475" y="0" type="line"/>
      <point x="654" y="0" type="line"/>
      <point x="674" y="40" type="line"/>
      <point x="481" y="114" type="line"/>
    </contour>
    <contour>
      <point x="206" y="892" type="line"/>
      <point x="124" y="852" type="line"/>
      <point x="124" y="0" type="line"/>
      <point x="244" y="0" type="line"/>
      <point x="244" y="892" type="line"/>
    </contour>
    <contour>
      <point x="35" y="31" type="line"/>
      <point x="35" y="0" type="line"/>
      <point x="314" y="0" type="line"/>
      <point x="334" y="40" type="line"/>
      <point x="141" y="114" type="line"/>
    </contour>
    <contour>
      <point x="418" y="716" type="line"/>
      <point x="0" y="716" type="line"/>
      <point x="0" y="675" type="line"/>
      <point x="418" y="675" type="line"/>
    </contour>
    <contour>
      <point x="180" y="823" type="move" name="top"/>
    </contour>
    <contour>
      <point x="324" y="531" type="move" name="topright"/>
    </contour>
    <contour>
      <point x="223" y="658" type="move" name="centre"/>
    </contour>
    <contour>
      <point x="180" y="0" type="move" name="bottom"/>
    </contour>
  </outline>
</glyph>
<glyph name="idotless" format="1">
  <advance width="389"/>
  <unicode hex="0131"/>
  <outline>
    <contour>
      <point x="144" y="456" type="line"/>
      <point x="144" y="0" type="line"/>
      <point x="264" y="0" type="line"/>
      <point x="264" y="550" type="line"/>
    </contour>
    <contour>
      <point x="55" y="31" type="line"/>
      <point x="55" y="0" type="line"/>
      <point x="334" y="0" type="line"/>
      <point x="354" y="40" type="line"/>
      <point x="161" y="114" type="line"/>
    </contour>
    <contour>
      <point x="226" y="550" type="line"/>
      <point x="55" y="486" type="line"/>
      <point x="55" y="455" type="line"/>
      <point x="227" y="335" type="line"/>
      <point x="264" y="550" type="line"/>
    </contour>
    <contour>
      <point x="334" y="0" type="move" name="ogonek"/>
    </contour>
    <contour>
      <point x="190" y="531" type="move" name="top"/>
    </contour>
  </outline>
</glyph>
<glyph name="lslash" format="1">
  <advance width="359"/>
  <unicode hex="0142"/>
  <outline>
    <contour>
      <point x="174" y="522" type="line"/>
      <point x="-20" y="314" type="line"/>
      <point x="-20" y="257" type="line"/>
      <point x="174" y="457" type="line"/>
    </contour>
    <contour>
      <point x="185" y="407" type="line"/>
      <point x="379" y="615" type="line"/>
      <point x="379" y="682" type="line"/>
      <point x="185" y="472" type="line"/>
    </contour>
    <component base="l"/>
  </outline>
</glyph>
<glyph name="Eng" format="1">
  <advance width="874"/>
  <unicode hex="014A"/>
  <outline>
    <contour>
      <point x="654" y="-15"/>
      <point x="663" y="-51"/>
      <point x="518" y="-234" type="curve"/>
      <point x="556" y="-264" type="line"/>
      <point x="748" y="-20" type="line"/>
      <point x="743" y="-4"/>
      <point x="739" y="45"/>
      <point x="739" y="99" type="curve"/>
      <point x="647" y="97" type="line"/>
    </contour>
    <component base="N"/>
  </outline>
</glyph>
<glyph name="OE" format="1">
  <advance width="1240"/>
  <unicode hex="0152"/>
  <outline>
    <contour>
      <point x="303" y="796"/>
      <point x="70" y="617"/>
      <point x="70" y="376" type="curve" smooth="yes"/>
      <point x="70" y="153"/>
      <point x="201" y="-10"/>
      <point x="399" y="-10" type="curve" smooth="yes"/>
      <point x="483" y="-10"/>
      <point x="532" y="0"/>
      <point x="683" y="0" type="curve"/>
      <point x="666" y="181" type="line"/>
      <point x="626" y="103"/>
      <point x="558" y="54"/>
      <point x="477" y="54" type="curve" smooth="yes"/>
      <point x="289" y="54"/>
      <point x="205" y="227"/>
      <point x="205" y="423" type="curve" smooth="yes"/>
      <point x="205" y="596"/>
      <point x="308" y="722"/>
      <point x="442" y="722" type="curve" smooth="yes"/>
      <point x="548" y="722"/>
      <point x="621" y="693"/>
      <point x="664" y="649" type="curve"/>
      <point x="682" y="786" type="line"/>
      <point x="578" y="786"/>
      <point x="553" y="796"/>
      <point x="470" y="796" type="curve" smooth="yes"/>
    </contour>
    <contour>
      <point x="654" y="45" type="line"/>
      <point x="654" y="0" type="line"/>
      <point x="1132" y="0" type="line"/>
      <point x="1132" y="45" type="line"/>
    </contour>
    <contour>
      <point x="590" y="786" type="line"/>
      <point x="590" y="0" type="line"/>
      <point x="715" y="0" type="line"/>
      <point x="715" y="786" type="line"/>
    </contour>
    <contour>
      <point x="967" y="30" type="line"/>
      <point x="1065" y="7" type="line"/>
      <point x="1140" y="-18" type="line"/>
      <point x="1140" y="232" type="line"/>
      <point x="1110" y="242" type="line"/>
    </contour>
    <contour>
      <point x="684" y="424" type="line"/>
      <point x="664" y="379" type="line"/>
      <point x="922" y="379" type="line"/>
      <point x="922" y="424" type="line"/>
    </contour>
    <contour>
      <point x="935" y="552" type="line"/>
      <point x="852" y="406" type="line"/>
      <point x="926" y="228" type="line"/>
      <point x="966" y="248" type="line"/>
      <point x="966" y="552" type="line"/>
    </contour>
    <contour>
      <point x="654" y="786" type="line"/>
      <point x="654" y="741" type="line"/>
      <point x="1122" y="741" type="line"/>
      <point x="1122" y="786" type="line"/>
    </contour>
    <contour>
      <point x="1055" y="779" type="line"/>
      <point x="957" y="776" type="line"/>
      <point x="1100" y="564" type="line"/>
      <point x="1130" y="574" type="line"/>
      <point x="1130" y="804" type="line"/>
    </contour>
  </outline>
</glyph>
<glyph name="longs" format="1">
  <advance width="439"/>
  <unicode hex="017F"/>
  <outline>
    <contour>
      <point x="296" y="883"/>
      <point x="144" y="752"/>
      <point x="144" y="590" type="curve" smooth="yes"/>
      <point x="144" y="0" type="line"/>
      <point x="264" y="0" type="line"/>
      <point x="264" y="638" type="line" smooth="yes"/>
      <point x="264" y="743"/>
      <point x="295" y="799"/>
      <point x="357" y="799" type="curve" smooth="yes"/>
      <point x="406" y="799"/>
      <point x="458" y="766"/>
      <point x="491" y="712" type="curve"/>
      <point x="529" y="712" type="line"/>
      <point x="529" y="866" type="line"/>
      <point x="509" y="874"/>
      <point x="453" y="883"/>
      <point x="415" y="883" type="curve" smooth="yes"/>
    </contour>
    <contour>
      <point x="55" y="31" type="line"/>
      <point x="55" y="0" type="line"/>
      <point x="384" y="0" type="line"/>
      <point x="404" y="40" type="line"/>
      <point x="161" y="114" type="line"/>
    </contour>
    <contour>
      <point x="25" y="501" type="line"/>
      <point x="25" y="460" type="line"/>
      <point x="203" y="460" type="line"/>
      <point x="203" y="501" type="line"/>
    </contour>
  </outline>
</glyph>
<glyph name="jdotless" format="1">
  <advance width="379"/>
  <unicode hex="0237"/>
  <outline>
    <contour>
      <point x="55" y="486" type="line"/>
      <point x="55" y="455" type="line"/>
      <point x="227" y="335" type="line"/>
      <point x="264" y="399" type="line"/>
      <point x="264" y="550" type="line"/>
      <point x="226" y="550" type="line"/>
    </contour>
    <contour>
      <point x="144" y="-87"/>
      <point x="123" y="-139"/>
      <point x="43" y="-234" type="curve"/>
      <point x="81" y="-264" type="line"/>
      <point x="273" y="-20" type="line"/>
      <point x="268" y="-4"/>
      <point x="264" y="45"/>
      <point x="264" y="99" type="curve" smooth="yes"/>
      <point x="264" y="399" type="line"/>
      <point x="144" y="456" type="line"/>
      <point x="144" y="11" type="line" smooth="yes"/>
    </contour>
    <contour>
      <point x="190" y="531" type="move" name="top"/>
    </contour>
  </outline>
</glyph>
<glyph name="dotaccent" format="1">
  <advance width="339"/>
  <unicode hex="02D9"/>
  <outline>
    <component base="period" yOffset="695"/>
    <contour>
      <point x="170" y="531" type="move" name="_top"/>
    </contour>
  </outline>
</glyph>
<glyph name="commaaccent" format="1">
  <advance width="359"/>
  <unicode hex="0326"/>
  <outline>
    <contour>
      <point x="70" y="-83" type="line"/>
      <point x="50" y="-123" type="line"/>
      <point x="157" y="-201" type="line"/>
      <point x="140" y="-119" type="line"/>
      <point x="102" y="-304" type="line"/>
      <point x="142" y="-304" type="line"/>
      <point x="269" y="-114" type="line"/>
      <point x="269" y="-83" type="line"/>
    </contour>
    <contour>
      <point x="149" y="0" type="move" name="_bottom"/>
    </contour>
    <contour>
      <point x="150" y="100" type="move" name="_g"/>
    </contour>
  </outline>
</glyph>
<glyph name="daggerdbl" format="1">
  <advance width="661"/>
  <unicode hex="2021"/>
  <outline>
    <contour>
      <point x="201" y="808" type="line"/>
      <point x="201" y="777" type="line"/>
      <point x="328" y="703" type="line"/>
      <point x="251" y="772" type="line"/>
      <point x="309" y="514" type="line"/>
      <point x="349" y="514" type="line"/>
      <point x="410" y="741" type="line"/>
      <point x="372" y="892" type="line"/>
    </contour>
    <contour>
      <point x="104" y="614" type="line"/>
      <point x="30" y="493" type="line"/>
      <point x="171" y="435" type="line"/>
      <point x="328" y="506" type="line"/>
      <point x="328" y="526" type="line"/>
      <point x="140" y="564" type="line"/>
      <point x="209" y="487" type="line"/>
      <point x="135" y="614" type="line"/>
    </contour>
    <contour>
      <point x="328" y="526" type="line"/>
      <point x="328" y="506" type="line"/>
      <point x="516" y="468" type="line"/>
      <point x="447" y="545" type="line"/>
      <point x="521" y="418" type="line"/>
      <point x="552" y="418" type="line"/>
      <point x="626" y="539" type="line"/>
      <point x="485" y="597" type="line"/>
    </contour>
    <contour>
      <point x="309" y="514" type="line"/>
      <point x="251" y="273" type="line"/>
      <point x="312" y="113" type="line"/>
      <point x="352" y="113" type="line"/>
      <point x="410" y="354" type="line"/>
      <point x="349" y="514" type="line"/>
    </contour>
    <contour>
      <point x="109" y="209" type="line"/>
      <point x="35" y="88" type="line"/>
      <point x="176" y="30" type="line"/>
      <point x="333" y="101" type="line"/>
      <point x="333" y="121" type="line"/>
      <point x="145" y="159" type="line"/>
      <point x="214" y="82" type="line"/>
      <point x="140" y="209" type="line"/>
    </contour>
    <contour>
      <point x="333" y="121" type="line"/>
      <point x="333" y="101" type="line"/>
      <point x="521" y="63" type="line"/>
      <point x="452" y="140" type="line"/>
      <point x="526" y="13" type="line"/>
      <point x="557" y="13" type="line"/>
      <point x="631" y="134" type="line"/>
      <point x="490" y="192" type="line"/>
    </contour>
    <contour>
      <point x="312" y="113" type="line"/>
      <point x="251" y="-114" type="line"/>
      <point x="289" y="-265" type="line"/>
      <point x="460" y="-181" type="line"/>
      <point x="460" y="-150" type="line"/>
      <point x="333" y="-76" type="line"/>
      <point x="410" y="-145" type="line"/>
      <point x="352" y="113" type="line"/>
    </contour>
  </outline>
</glyph>
<glyph name="fraction" format="1">
  <advance width="228"/>
  <unicode hex="2044"/>
  <outline>
    <contour>
      <point x="-216" y="-173" type="line"/>
      <point x="-178" y="-192" type="line"/>
      <point x="444" y="978" type="line"/>
      <point x="405" y="996" type="line"/>
    </contour>
  </outline>
</glyph>
<glyph name="euro" format="1">
  <advance width="884"/>
  <unicode hex="20AC"/>
  <outline>
    <contour>
      <point x="21" y="481" type="line"/>
      <point x="0" y="440" type="line"/>
      <point x="599" y="440" type="line"/>
      <point x="620" y="481" type="line"/>
    </contour>
    <contour>
      <point x="21" y="341" type="line"/>
      <point x="0" y="300" type="line"/>
      <point x="533" y="300" type="line"/>
      <point x="554" y="341" type="line"/>
    </contour>
    <component base="C" xOffset="64"/>
  </outline>
</glyph>
<glyph name="numero" format="1">
  <advance width="1528"/>
  <unicode hex="2116"/>
  <outline>
    <contour>
      <point x="951" y="238" type="line"/>
      <point x="930" y="197" type="line"/>
      <point x="1456" y="197" type="line"/>
      <point x="1477" y="238" type="line"/>
    </contour>
    <contour>
      <point x="950" y="41" type="line"/>
      <point x="929" y="0" type="line"/>
      <point x="1457" y="0" type="line"/>
      <point x="1478" y="41" type="line"/>
    </contour>
    <component base="N"/>
    <component base="o" xOffset="902" yOffset="373" xScale="0.9" yScale="0.8"/>
  </outline>
</glyph>
<glyph name="estimated" format="1">
  <advance width="968"/>
  <unicode hex="212E"/>
  <outline>
    <contour>
      <point x="240" y="805"/>
      <point x="70" y="634"/>
      <point x="70" y="393" type="curve" smooth="yes"/>
      <point x="70" y="150"/>
      <point x="240" y="-19"/>
      <point x="485" y="-19" type="curve" smooth="yes"/>
      <point x="653" y="-19"/>
      <point x="788" y="69"/>
      <point x="854" y="209" type="curve"/>
      <point x="769" y="209" type="line"/>
      <point x="716" y="104"/>
      <point x="611" y="42"/>
      <point x="485" y="42" type="curve" smooth="yes"/>
      <point x="283" y="42"/>
      <point x="140" y="182"/>
      <point x="140" y="393" type="curve" smooth="yes"/>
      <point x="140" y="597"/>
      <point x="283" y="744"/>
      <point x="485" y="744" type="curve" smooth="yes"/>
      <point x="688" y="744"/>
      <point x="829" y="597"/>
      <point x="829" y="393" type="curve"/>
      <point x="865" y="421" type="line"/>
      <point x="97" y="421" type="line"/>
      <point x="95" y="369" type="line"/>
      <point x="898" y="369" type="line"/>
      <point x="898" y="385"/>
      <point x="898" y="389"/>
      <point x="898" y="393" type="curve" smooth="yes"/>
      <point x="898" y="634"/>
      <point x="729" y="805"/>
      <point x="485" y="805" type="curve" smooth="yes"/>
    </contour>
    <contour>
      <point x="84" y="393" type="line"/>
      <point x="245" y="63" type="line"/>
      <point x="245" y="725" type="line"/>
    </contour>
    <contour>
      <point x="723" y="391" type="line"/>
      <point x="884" y="391" type="line"/>
      <point x="723" y="723" type="line"/>
    </contour>
  </outline>
</glyph>
<glyph name="Ten-roman" format="1">
  <advance width="773"/>
  <unicode hex="2169"/>
  <outline>
    <contour>
      <point x="342" y="246" type="line"/>
      <point x="443" y="314" type="line"/>
      <point x="254" y="506" type="line"/>
      <point x="56" y="553" type="line"/>
    </contour>
    <contour>
      <point x="50" y="571" type="line"/>
      <point x="30" y="531" type="line"/>
      <point x="205" y="425" type="line"/>
      <point x="344" y="540" type="line"/>
      <point x="344" y="571" type="line"/>
    </contour>
    <contour>
      <point x="592" y="506" type="line"/>
      <point x="366" y="293" type="line"/>
      <point x="436" y="297" type="line"/>
      <point x="693" y="540" type="line"/>
    </contour>
    <contour>
      <point x="439" y="571" type="line"/>
      <point x="419" y="531" type="line"/>
      <point x="597" y="457" type="line"/>
      <point x="733" y="540" type="line"/>
      <point x="733" y="571" type="line"/>
    </contour>
    <contour>
      <point x="431" y="330" type="line"/>
      <point x="330" y="262" type="line"/>
      <point x="519" y="65" type="line"/>
      <point x="717" y="18" type="line"/>
    </contour>
    <contour>
      <point x="723" y="0" type="line"/>
      <point x="743" y="40" type="line"/>
      <point x="568" y="146" type="line"/>
      <point x="429" y="31" type="line"/>
      <point x="429" y="0" type="line"/>
    </contour>
    <contour>
      <point x="161" y="65" type="line"/>
      <point x="407" y="283" type="line"/>
      <point x="337" y="279" type="line"/>
      <point x="57" y="31" type="line"/>
    </contour>
    <contour>
      <point x="314" y="0" type="line"/>
      <point x="334" y="40" type="line"/>
      <point x="156" y="114" type="line"/>
      <point x="20" y="31" type="line"/>
      <point x="20" y="0" type="line"/>
    </contour>
  </outline>
</glyph>
<glyph name="Thousand-roman" format="1">
  <advance width="966"/>
  <unicode hex="216F"/>
  <outline>
    <contour>
      <point x="60" y="31" type="line"/>
      <point x="60" y="0" type="line"/>
      <point x="294" y="0" type="line"/>
      <point x="314" y="40" type="line"/>
      <point x="166" y="114" type="line"/>
    </contour>
    <contour>
      <point x="154" y="571" type="line"/>
      <point x="154" y="0" type="line"/>
      <point x="209" y="0" type="line"/>
      <point x="209" y="571" type="line"/>
    </contour>
    <contour>
      <point x="176" y="571" type="line"/>
      <point x="70" y="571" type="line"/>
      <point x="50" y="531" type="line"/>
      <point x="188" y="457" type="line"/>
    </contour>
    <contour>
      <point x="676" y="571" type="line"/>
      <point x="424" y="0" type="line"/>
      <point x="479" y="0" type="line"/>
      <point x="738" y="571" type="line"/>
    </contour>
    <contour>
      <point x="200" y="465" type="line"/>
      <point x="424" y="0" type="line"/>
      <point x="498" y="130" type="line"/>
      <point x="285" y="571" type="line"/>
      <point x="178" y="571" type="line"/>
    </contour>
    <contour>
      <point x="592" y="31" type="line"/>
      <point x="592" y="0" type="line"/>
      <point x="896" y="0" type="line"/>
      <point x="916" y="40" type="line"/>
      <point x="698" y="114" type="line"/>
    </contour>
    <contour>
      <point x="686" y="571" type="line"/>
      <point x="686" y="0" type="line"/>
      <point x="811" y="0" type="line"/>
      <point x="811" y="571" type="line"/>
    </contour>
    <contour>
      <point x="906" y="540" type="line"/>
      <point x="906" y="571" type="line"/>
      <point x="753" y="571" type="line"/>
      <point x="733" y="531" type="line"/>
      <point x="800" y="457" type="line"/>
    </contour>
  </outline>
</glyph>
<glyph name="leftArrow" format="1">
  <advance width="762"/>
  <unicode hex="2190"/>
  <outline>
    <contour>
      <point x="237" y="458"/>
      <point x="94" y="359"/>
      <point x="10" y="310" type="curve"/>
      <point x="94" y="261"/>
      <point x="237" y="162"/>
      <point x="329" y="68" type="curve"/>
      <point x="349" y="106" type="line"/>
      <point x="307" y="171"/>
      <point x="281" y="243"/>
      <point x="284" y="290" type="curve"/>
      <point x="433" y="280"/>
      <point x="564" y="227"/>
      <point x="682" y="153" type="curve"/>
      <point x="702" y="191" type="line"/>
      <point x="525" y="338" type="line"/>
      <point x="525" y="282" type="line"/>
      <point x="702" y="429" type="line"/>
      <point x="682" y="467" type="line"/>
      <point x="564" y="393"/>
      <point x="433" y="340"/>
      <point x="284" y="330" type="curve"/>
      <point x="281" y="377"/>
      <point x="307" y="449"/>
      <point x="349" y="514" type="curve"/>
      <point x="329" y="552" type="line"/>
    </contour>
  </outline>
</glyph>
<glyph name="summation" format="1">
  <advance width="789"/>
  <unicode hex="2211"/>
  <outline>
    <contour>
      <point x="69" y="-55" type="line"/>
      <point x="194" y="-85" type="line"/>
      <point x="521" y="344" type="line"/>
      <point x="400" y="379" type="line"/>
    </contour>
    <contour>
      <point x="69" y="-55" type="line"/>
      <point x="69" y="-100" type="line"/>
      <point x="681" y="-100" type="line"/>
      <point x="681" y="-55" type="line"/>
    </contour>
    <contour>
      <point x="516" y="-70" type="line"/>
      <point x="614" y="-93" type="line"/>
      <point x="689" y="-118" type="line"/>
      <point x="689" y="132" type="line"/>
      <point x="659" y="142" type="line"/>
    </contour>
    <contour>
      <point x="89" y="741" type="line"/>
      <point x="400" y="309" type="line"/>
      <point x="521" y="344" type="line"/>
      <point x="214" y="771" type="line"/>
    </contour>
    <contour>
      <point x="89" y="786" type="line"/>
      <point x="89" y="741" type="line"/>
      <point x="671" y="741" type="line"/>
      <point x="671" y="786" type="line"/>
    </contour>
    <contour>
      <point x="604" y="779" type="line"/>
      <point x="506" y="776" type="line"/>
      <point x="649" y="564" type="line"/>
      <point x="679" y="574" type="line"/>
      <point x="679" y="804" type="line"/>
    </contour>
  </outline>
</glyph>
<glyph name="radical" format="1">
  <advance width="563"/>
  <unicode hex="221A"/>
  <outline>
    <contour>
      <point x="788" y="1049" type="line"/>
      <point x="345" y="27" type="line"/>
      <point x="399" y="49" type="line"/>
      <point x="291" y="309" type="line"/>
      <point x="164" y="309" type="line"/>
      <point x="298" y="-19" type="line"/>
      <point x="402" y="32" type="line"/>
      <point x="844" y="1049" type="line"/>
    </contour>
    <contour>
      <point x="40" y="309" type="line"/>
      <point x="40" y="268" type="line"/>
      <point x="250" y="268" type="line"/>
      <point x="291" y="309" type="line"/>
    </contour>
    <contour>
      <point x="733" y="786" type="move" name="top"/>
    </contour>
  </outline>
</glyph>
<glyph name="infinity" format="1">
  <advance width="987"/>
  <unicode hex="221E"/>
  <outline>
    <contour>
      <point x="703" y="499"/>
      <point x="682" y="497"/>
      <point x="667" y="491" type="curve"/>
      <point x="490" y="351" type="line"/>
      <point x="520" y="328" type="line"/>
      <point x="599" y="403"/>
      <point x="651" y="414"/>
      <point x="685" y="414" type="curve" smooth="yes"/>
      <point x="753" y="414"/>
      <point x="787" y="360"/>
      <point x="787" y="293" type="curve" smooth="yes"/>
      <point x="787" y="227"/>
      <point x="761" y="188"/>
      <point x="706" y="188" type="curve" smooth="yes"/>
      <point x="628" y="188"/>
      <point x="595" y="258"/>
      <point x="556" y="313" type="curve" smooth="yes"/>
      <point x="492" y="410"/>
      <point x="459" y="499"/>
      <point x="341" y="499" type="curve" smooth="yes"/>
      <point x="222" y="499"/>
      <point x="70" y="394"/>
      <point x="70" y="266" type="curve" smooth="yes"/>
      <point x="70" y="179"/>
      <point x="154" y="108"/>
      <point x="270" y="108" type="curve" smooth="yes"/>
      <point x="284" y="108"/>
      <point x="305" y="110"/>
      <point x="320" y="116" type="curve"/>
      <point x="497" y="256" type="line"/>
      <point x="467" y="279" type="line"/>
      <point x="388" y="204"/>
      <point x="336" y="193"/>
      <point x="302" y="193" type="curve" smooth="yes"/>
      <point x="234" y="193"/>
      <point x="200" y="247"/>
      <point x="200" y="314" type="curve" smooth="yes"/>
      <point x="200" y="380"/>
      <point x="226" y="419"/>
      <point x="281" y="419" type="curve" smooth="yes"/>
      <point x="359" y="419"/>
      <point x="392" y="349"/>
      <point x="431" y="294" type="curve" smooth="yes"/>
      <point x="495" y="197"/>
      <point x="528" y="108"/>
      <point x="646" y="108" type="curve" smooth="yes"/>
      <point x="765" y="108"/>
      <point x="917" y="213"/>
      <point x="917" y="341" type="curve" smooth="yes"/>
      <point x="917" y="428"/>
      <point x="833" y="499"/>
      <point x="717" y="499" type="curve" smooth="yes"/>
    </contour>
  </outline>
</glyph>
<glyph name="notequal" format="1">
  <advance width="527"/>
  <unicode hex="2260"/>
  <outline>
    <contour>
      <point x="397" y="604" type="line"/>
      <point x="94" y="33" type="line"/>
      <point x="130" y="13" type="line"/>
      <point x="433" y="585" type="line"/>
    </contour>
    <component base="equal"/>
  </outline>
</glyph>
<glyph name="lozenge" format="1">
  <advance width="629"/>
  <unicode hex="25CA"/>
  <outline>
    <contour>
      <point x="257" y="842" type="line"/>
      <point x="80" y="435" type="line"/>
      <point x="268" y="-19" type="line"/>
      <point x="372" y="32" type="line"/>
      <point x="549" y="439" type="line"/>
      <point x="361" y="893" type="line"/>
    </contour>
    <contour>
      <point x="265" y="814" type="line"/>
      <point x="456" y="352" type="line"/>
      <point x="329" y="60" type="line"/>
      <point x="365" y="60" type="line"/>
      <point x="173" y="522" type="line"/>
      <point x="300" y="814" type="line"/>
    </contour>
  </outline>
</glyph>
<glyph name="c_t" format="1">
  <advance width="1069"/>
  <outline>
    <contour>
      <point x="519" y="853"/>
      <point x="343" y="722"/>
      <point x="343" y="560" type="curve" smooth="yes"/>
      <point x="343" y="536"/>
      <point x="343" y="515"/>
      <point x="405" y="504" type="curve"/>
      <point x="525" y="504" type="line"/>
      <point x="487" y="531"/>
      <point x="463" y="568"/>
      <point x="463" y="608" type="curve" smooth="yes"/>
      <point x="463" y="713"/>
      <point x="519" y="769"/>
      <point x="586" y="769" type="curve" smooth="yes"/>
      <point x="643" y="769"/>
      <point x="720" y="712"/>
      <point x="757" y="614" type="curve"/>
      <point x="857" y="722" type="line"/>
      <point x="820" y="785"/>
      <point x="719" y="853"/>
      <point x="654" y="853" type="curve" smooth="yes"/>
    </contour>
    <component base="c"/>
    <component base="t" xOffset="613"/>
  </outline>
</glyph>
<glyph name="exclamdown.case" format="1">
  <advance width="349"/>
  <outline>
    <contour>
      <point x="148" y="521" type="line"/>
      <point x="95" y="-10" type="line"/>
      <point x="133" y="-10" type="line"/>
      <point x="269" y="40" type="line"/>
      <point x="269" y="71" type="line"/>
      <point x="208" y="521" type="line"/>
    </contour>
    <component base="period" xOffset="13" yOffset="651"/>
  </outline>
</glyph>
<glyph name="f_f_idieresis.liga" format="1">
  <advance width="1196"/>
  <outline>
    <contour>
      <point x="319" y="853"/>
      <point x="143" y="722"/>
      <point x="143" y="560" type="curve" smooth="yes"/>
      <point x="143" y="0" type="line"/>
      <point x="263" y="0" type="line"/>
      <point x="263" y="608" type="line" smooth="yes"/>
      <point x="263" y="713"/>
      <point x="319" y="769"/>
      <point x="386" y="769" type="curve" smooth="yes"/>
      <point x="454" y="769"/>
      <point x="545" y="738"/>
      <point x="589" y="685" type="curve"/>
      <point x="684" y="789" type="line"/>
      <point x="642" y="820"/>
      <point x="528" y="853"/>
      <point x="454" y="853" type="curve" smooth="yes"/>
    </contour>
    <contour>
      <point x="25" y="501" type="line"/>
      <point x="25" y="460" type="line"/>
      <point x="443" y="460" type="line"/>
      <point x="443" y="501" type="line"/>
    </contour>
    <contour>
      <point x="54" y="31" type="line"/>
      <point x="54" y="0" type="line"/>
      <point x="383" y="0" type="line"/>
      <point x="403" y="40" type="line"/>
      <point x="160" y="114" type="line"/>
    </contour>
    <contour>
      <point x="684" y="883"/>
      <point x="532" y="752"/>
      <point x="532" y="590" type="curve" smooth="yes"/>
      <point x="532" y="0" type="line"/>
      <point x="652" y="0" type="line"/>
      <point x="652" y="638" type="line" smooth="yes"/>
      <point x="652" y="743"/>
      <point x="683" y="799"/>
      <point x="745" y="799" type="curve" smooth="yes"/>
      <point x="781" y="799"/>
      <point x="790" y="788"/>
      <point x="790" y="763" type="curve" smooth="yes"/>
      <point x="790" y="722"/>
      <point x="816" y="690"/>
      <point x="852" y="690" type="curve" smooth="yes"/>
      <point x="887" y="690"/>
      <point x="933" y="727"/>
      <point x="933" y="773" type="curve" smooth="yes"/>
      <point x="933" y="860"/>
      <point x="841" y="883"/>
      <point x="803" y="883" type="curve" smooth="yes"/>
    </contour>
    <contour>
      <point x="414" y="501" type="line"/>
      <point x="414" y="460" type="line"/>
      <point x="933" y="460" type="line"/>
      <point x="933" y="501" type="line"/>
    </contour>
    <contour>
      <point x="583" y="31" type="line"/>
      <point x="583" y="0" type="line"/>
      <point x="772" y="0" type="line"/>
      <point x="792" y="40" type="line"/>
      <point x="549" y="114" type="line"/>
    </contour>
    <contour>
      <point x="862" y="31" type="line"/>
      <point x="862" y="0" type="line"/>
      <point x="1141" y="0" type="line"/>
      <point x="1161" y="40" type="line"/>
      <point x="968" y="114" type="line"/>
    </contour>
    <contour>
      <point x="1106" y="846"/>
      <point x="1060" y="809"/>
      <point x="1060" y="763" type="curve" smooth="yes"/>
      <point x="1060" y="722"/>
      <point x="1086" y="690"/>
      <point x="1122" y="690" type="curve" smooth="yes"/>
      <point x="1157" y="690"/>
      <point x="1203" y="727"/>
      <point x="1203" y="773" type="curve" smooth="yes"/>
      <point x="1203" y="814"/>
      <point x="1178" y="846"/>
      <point x="1141" y="846" type="curve" smooth="yes"/>
    </contour>
    <contour>
      <point x="951" y="0" type="line"/>
      <point x="1071" y="0" type="line"/>
      <point x="1071" y="550" type="line"/>
      <point x="951" y="482" type="line"/>
    </contour>
    <contour>
      <point x="1033" y="550" type="line"/>
      <point x="862" y="496" type="line"/>
      <point x="862" y="465" type="line"/>
      <point x="1034" y="335" type="line"/>
      <point x="1071" y="550" type="line"/>
    </contour>
  </outline>
</glyph>
<glyph name="f_f_odieresis.liga" format="1">
  <advance width="1465"/>
  <outline>
    <contour>
      <point x="319" y="853"/>
      <point x="143" y="722"/>
      <point x="143" y="560" type="curve" smooth="yes"/>
      <point x="143" y="0" type="line"/>
      <point x="263" y="0" type="line"/>
      <point x="263" y="608" type="line" smooth="yes"/>
      <point x="263" y="713"/>
      <point x="319" y="769"/>
      <point x="386" y="769" type="curve" smooth="yes"/>
      <point x="454" y="769"/>
      <point x="545" y="738"/>
      <point x="589" y="685" type="curve"/>
      <point x="684" y="789" type="line"/>
      <point x="642" y="820"/>
      <point x="528" y="853"/>
      <point x="454" y="853" type="curve" smooth="yes"/>
    </contour>
    <contour>
      <point x="25" y="501" type="line"/>
      <point x="25" y="460" type="line"/>
      <point x="443" y="460" type="line"/>
      <point x="443" y="501" type="line"/>
    </contour>
    <contour>
      <point x="54" y="31" type="line"/>
      <point x="54" y="0" type="line"/>
      <point x="383" y="0" type="line"/>
      <point x="403" y="40" type="line"/>
      <point x="160" y="114" type="line"/>
    </contour>
    <contour>
      <point x="702" y="883"/>
      <point x="532" y="752"/>
      <point x="532" y="590" type="curve" smooth="yes"/>
      <point x="532" y="0" type="line"/>
      <point x="652" y="0" type="line"/>
      <point x="652" y="638" type="line" smooth="yes"/>
      <point x="652" y="743"/>
      <point x="692" y="799"/>
      <point x="775" y="799" type="curve" smooth="yes"/>
      <point x="870" y="799"/>
      <point x="901" y="790"/>
      <point x="928" y="731" type="curve" smooth="yes"/>
      <point x="943" y="699"/>
      <point x="962" y="690"/>
      <point x="984" y="690" type="curve" smooth="yes"/>
      <point x="1023" y="690"/>
      <point x="1066" y="729"/>
      <point x="1066" y="773" type="curve" smooth="yes"/>
      <point x="1066" y="801"/>
      <point x="1054" y="827"/>
      <point x="1027" y="842" type="curve" smooth="yes"/>
      <point x="998" y="858"/>
      <point x="901" y="883"/>
      <point x="833" y="883" type="curve" smooth="yes"/>
    </contour>
    <contour>
      <point x="414" y="501" type="line"/>
      <point x="414" y="460" type="line"/>
      <point x="833" y="460" type="line"/>
      <point x="833" y="501" type="line"/>
    </contour>
    <contour>
      <point x="568" y="31" type="line"/>
      <point x="568" y="0" type="line"/>
      <point x="772" y="0" type="line"/>
      <point x="792" y="40" type="line"/>
      <point x="549" y="114" type="line"/>
    </contour>
    <contour>
      <point x="1239" y="846"/>
      <point x="1193" y="809"/>
      <point x="1193" y="763" type="curve" smooth="yes"/>
      <point x="1193" y="722"/>
      <point x="1219" y="690"/>
      <point x="1255" y="690" type="curve" smooth="yes"/>
      <point x="1290" y="690"/>
      <point x="1336" y="727"/>
      <point x="1336" y="773" type="curve" smooth="yes"/>
      <point x="1336" y="814"/>
      <point x="1311" y="846"/>
      <point x="1274" y="846" type="curve" smooth="yes"/>
    </contour>
    <component base="o" xOffset="794"/>
  </outline>
</glyph>
<glyph name="f_idieresis.liga" format="1">
  <advance width="807"/>
  <outline>
    <contour>
      <point x="295" y="883"/>
      <point x="143" y="752"/>
      <point x="143" y="590" type="curve" smooth="yes"/>
      <point x="143" y="0" type="line"/>
      <point x="263" y="0" type="line"/>
      <point x="263" y="638" type="line" smooth="yes"/>
      <point x="263" y="743"/>
      <point x="294" y="799"/>
      <point x="356" y="799" type="curve" smooth="yes"/>
      <point x="392" y="799"/>
      <point x="401" y="788"/>
      <point x="401" y="763" type="curve" smooth="yes"/>
      <point x="401" y="722"/>
      <point x="427" y="690"/>
      <point x="463" y="690" type="curve" smooth="yes"/>
      <point x="498" y="690"/>
      <point x="544" y="727"/>
      <point x="544" y="773" type="curve" smooth="yes"/>
      <point x="544" y="860"/>
      <point x="452" y="883"/>
      <point x="414" y="883" type="curve" smooth="yes"/>
    </contour>
    <contour>
      <point x="54" y="31" type="line"/>
      <point x="54" y="0" type="line"/>
      <point x="383" y="0" type="line"/>
      <point x="403" y="40" type="line"/>
      <point x="160" y="114" type="line"/>
    </contour>
    <contour>
      <point x="473" y="31" type="line"/>
      <point x="473" y="0" type="line"/>
      <point x="752" y="0" type="line"/>
      <point x="772" y="40" type="line"/>
      <point x="579" y="114" type="line"/>
    </contour>
    <contour>
      <point x="25" y="501" type="line"/>
      <point x="25" y="460" type="line"/>
      <point x="544" y="460" type="line"/>
      <point x="544" y="501" type="line"/>
    </contour>
    <contour>
      <point x="717" y="846"/>
      <point x="671" y="809"/>
      <point x="671" y="763" type="curve" smooth="yes"/>
      <point x="671" y="722"/>
      <point x="697" y="690"/>
      <point x="733" y="690" type="curve" smooth="yes"/>
      <point x="768" y="690"/>
      <point x="814" y="727"/>
      <point x="814" y="773" type="curve" smooth="yes"/>
      <point x="814" y="814"/>
      <point x="789" y="846"/>
      <point x="752" y="846" type="curve" smooth="yes"/>
    </contour>
    <contour>
      <point x="562" y="0" type="line"/>
      <point x="682" y="0" type="line"/>
      <point x="682" y="550" type="line"/>
      <point x="562" y="482" type="line"/>
    </contour>
    <contour>
      <point x="644" y="550" type="line"/>
      <point x="473" y="496" type="line"/>
      <point x="473" y="465" type="line"/>
      <point x="645" y="335" type="line"/>
      <point x="682" y="550" type="line"/>
    </contour>
  </outline>
</glyph>
<glyph name="g.ss02" format="1">
  <advance width="688"/>
  <outline>
    <contour>
      <point x="582" y="493" type="line"/>
      <point x="514" y="447"/>
      <point x="416" y="347"/>
      <point x="416" y="249" type="curve" smooth="yes"/>
      <point x="416" y="153"/>
      <point x="480" y="93"/>
      <point x="480" y="-74" type="curve" smooth="yes"/>
      <point x="480" y="-130"/>
      <point x="433" y="-194"/>
      <point x="365" y="-194" type="curve" smooth="yes"/>
      <point x="287" y="-194"/>
      <point x="226" y="-138"/>
      <point x="170" y="-50" type="curve"/>
      <point x="82" y="-111" type="line"/>
      <point x="82" y="-189" type="line"/>
      <point x="132" y="-214"/>
      <point x="257" y="-264"/>
      <point x="342" y="-264" type="curve" smooth="yes"/>
      <point x="460" y="-264"/>
      <point x="598" y="-109"/>
      <point x="598" y="-40" type="curve" smooth="yes"/>
      <point x="598" y="106"/>
      <point x="529" y="182"/>
      <point x="529" y="323" type="curve" smooth="yes"/>
      <point x="529" y="391"/>
      <point x="555" y="443"/>
      <point x="598" y="493" type="curve"/>
    </contour>
    <contour>
      <point x="82" y="-111" type="line"/>
      <point x="112" y="-134" type="line"/>
      <point x="330" y="38" type="line"/>
      <point x="300" y="61" type="line"/>
    </contour>
    <contour>
      <point x="228" y="541"/>
      <point x="70" y="418"/>
      <point x="70" y="268" type="curve" smooth="yes"/>
      <point x="70" y="136"/>
      <point x="158" y="30"/>
      <point x="280" y="30" type="curve" smooth="yes"/>
      <point x="293" y="30"/>
      <point x="314" y="31"/>
      <point x="330" y="38" type="curve"/>
      <point x="507" y="178" type="line"/>
      <point x="477" y="201" type="line"/>
      <point x="403" y="130"/>
      <point x="361" y="119"/>
      <point x="318" y="119" type="curve" smooth="yes"/>
      <point x="246" y="119"/>
      <point x="200" y="209"/>
      <point x="200" y="316" type="curve" smooth="yes"/>
      <point x="200" y="408"/>
      <point x="231" y="457"/>
      <point x="293" y="457" type="curve" smooth="yes"/>
      <point x="371" y="457"/>
      <point x="440" y="418"/>
      <point x="497" y="403" type="curve"/>
      <point x="598" y="493" type="line"/>
      <point x="568" y="531" type="line"/>
      <point x="496" y="531"/>
      <point x="425" y="541"/>
      <point x="351" y="541" type="curve" smooth="yes"/>
    </contour>
    <contour>
      <point x="351" y="621" type="move" name="g"/>
    </contour>
    <contour>
      <point x="351" y="531" type="move" name="top"/>
    </contour>
  </outline>
</glyph>
<glyph name="longs_l.liga" format="1">
  <advance width="777"/>
  <outline>
    <contour>
      <point x="319" y="883"/>
      <point x="143" y="752"/>
      <point x="143" y="590" type="curve" smooth="yes"/>
      <point x="143" y="0" type="line"/>
      <point x="263" y="0" type="line"/>
      <point x="263" y="638" type="line" smooth="yes"/>
      <point x="263" y="743"/>
      <point x="319" y="799"/>
      <point x="386" y="799" type="curve" smooth="yes"/>
      <point x="435" y="799"/>
      <point x="501" y="778"/>
      <point x="533" y="742" type="curve"/>
      <point x="571" y="742" type="line"/>
      <point x="614" y="873" type="line"/>
      <point x="567" y="878"/>
      <point x="507" y="883"/>
      <point x="454" y="883" type="curve" smooth="yes"/>
    </contour>
    <contour>
      <point x="25" y="501" type="line"/>
      <point x="25" y="460" type="line"/>
      <point x="202" y="460" type="line"/>
      <point x="202" y="501" type="line"/>
    </contour>
    <contour>
      <point x="54" y="31" type="line"/>
      <point x="54" y="0" type="line"/>
      <point x="383" y="0" type="line"/>
      <point x="403" y="40" type="line"/>
      <point x="160" y="114" type="line"/>
    </contour>
    <contour>
      <point x="614" y="873" type="line"/>
      <point x="532" y="779" type="line"/>
      <point x="532" y="0" type="line"/>
      <point x="652" y="0" type="line"/>
      <point x="652" y="873" type="line"/>
    </contour>
    <contour>
      <point x="581" y="31" type="line"/>
      <point x="581" y="0" type="line"/>
      <point x="722" y="0" type="line"/>
      <point x="742" y="40" type="line"/>
      <point x="549" y="114" type="line"/>
    </contour>
    <contour>
      <point x="732" y="531" type="move" name="topright"/>
    </contour>
    <contour>
      <point x="598" y="0" type="move" name="bottom"/>
    </contour>
  </outline>
</glyph>
<glyph name="longs_longs.liga" format="1">
  <advance width="827"/>
  <outline>
    <contour>
      <point x="319" y="853"/>
      <point x="143" y="722"/>
      <point x="143" y="560" type="curve" smooth="yes"/>
      <point x="143" y="0" type="line"/>
      <point x="263" y="0" type="line"/>
      <point x="263" y="608" type="line" smooth="yes"/>
      <point x="263" y="713"/>
      <point x="319" y="769"/>
      <point x="386" y="769" type="curve" smooth="yes"/>
      <point x="454" y="769"/>
      <point x="545" y="738"/>
      <point x="589" y="685" type="curve"/>
      <point x="684" y="789" type="line"/>
      <point x="642" y="820"/>
      <point x="528" y="853"/>
      <point x="454" y="853" type="curve" smooth="yes"/>
    </contour>
    <contour>
      <point x="54" y="31" type="line"/>
      <point x="54" y="0" type="line"/>
      <point x="383" y="0" type="line"/>
      <point x="403" y="40" type="line"/>
      <point x="160" y="114" type="line"/>
    </contour>
    <contour>
      <point x="578" y="31" type="line"/>
      <point x="578" y="0" type="line"/>
      <point x="772" y="0" type="line"/>
      <point x="792" y="40" type="line"/>
      <point x="549" y="114" type="line"/>
    </contour>
    <contour>
      <point x="25" y="501" type="line"/>
      <point x="25" y="460" type="line"/>
      <point x="205" y="460" type="line"/>
      <point x="205" y="501" type="line"/>
    </contour>
    <contour>
      <point x="414" y="501" type="line"/>
      <point x="414" y="460" type="line"/>
      <point x="595" y="460" type="line"/>
      <point x="595" y="501" type="line"/>
    </contour>
    <contour>
      <point x="684" y="883"/>
      <point x="532" y="752"/>
      <point x="532" y="590" type="curve" smooth="yes"/>
      <point x="532" y="0" type="line"/>
      <point x="652" y="0" type="line"/>
      <point x="652" y="638" type="line" smooth="yes"/>
      <point x="652" y="743"/>
      <point x="683" y="799"/>
      <point x="745" y="799" type="curve" smooth="yes"/>
      <point x="794" y="799"/>
      <point x="846" y="766"/>
      <point x="879" y="712" type="curve"/>
      <point x="917" y="712" type="line"/>
      <point x="917" y="866" type="line"/>
      <point x="897" y="874"/>
      <point x="841" y="883"/>
      <point x="803" y="883" type="curve" smooth="yes"/>
    </contour>
  </outline>
</glyph>
<glyph name="longs_longs_i.liga" format="1">
  <advance width="1166"/>
  <outline>
    <contour>
      <point x="319" y="853"/>
      <point x="143" y="722"/>
      <point x="143" y="560" type="curve" smooth="yes"/>
      <point x="143" y="0" type="line"/>
      <point x="263" y="0" type="line"/>
      <point x="263" y="608" type="line" smooth="yes"/>
      <point x="263" y="713"/>
      <point x="319" y="769"/>
      <point x="386" y="769" type="curve" smooth="yes"/>
      <point x="454" y="769"/>
      <point x="545" y="738"/>
      <point x="589" y="685" type="curve"/>
      <point x="684" y="789" type="line"/>
      <point x="642" y="820"/>
      <point x="528" y="853"/>
      <point x="454" y="853" type="curve" smooth="yes"/>
    </contour>
    <contour>
      <point x="25" y="501" type="line"/>
      <point x="25" y="460" type="line"/>
      <point x="206" y="460" type="line"/>
      <point x="206" y="501" type="line"/>
    </contour>
    <contour>
      <point x="54" y="31" type="line"/>
      <point x="54" y="0" type="line"/>
      <point x="383" y="0" type="line"/>
      <point x="403" y="40" type="line"/>
      <point x="160" y="114" type="line"/>
    </contour>
    <contour>
      <point x="684" y="883"/>
      <point x="532" y="752"/>
      <point x="532" y="590" type="curve" smooth="yes"/>
      <point x="532" y="0" type="line"/>
      <point x="652" y="0" type="line"/>
      <point x="652" y="638" type="line" smooth="yes"/>
      <point x="652" y="743"/>
      <point x="683" y="799"/>
      <point x="745" y="799" type="curve" smooth="yes"/>
      <point x="833" y="799"/>
      <point x="864" y="789"/>
      <point x="895" y="726" type="curve" smooth="yes"/>
      <point x="910" y="695"/>
      <point x="934" y="685"/>
      <point x="956" y="685" type="curve" smooth="yes"/>
      <point x="995" y="685"/>
      <point x="1046" y="724"/>
      <point x="1046" y="773" type="curve" smooth="yes"/>
      <point x="1046" y="801"/>
      <point x="1034" y="827"/>
      <point x="1007" y="842" type="curve" smooth="yes"/>
      <point x="978" y="859"/>
      <point x="874" y="883"/>
      <point x="803" y="883" type="curve" smooth="yes"/>
    </contour>
    <contour>
      <point x="414" y="501" type="line"/>
      <point x="414" y="460" type="line"/>
      <point x="598" y="460" type="line"/>
      <point x="598" y="501" type="line"/>
    </contour>
    <contour>
      <point x="554" y="31" type="line"/>
      <point x="554" y="0" type="line"/>
      <point x="772" y="0" type="line"/>
      <point x="792" y="40" type="line"/>
      <point x="549" y="114" type="line"/>
    </contour>
    <contour>
      <point x="955" y="31" type="line"/>
      <point x="955" y="0" type="line"/>
      <point x="1111" y="0" type="line"/>
      <point x="1131" y="40" type="line"/>
      <point x="938" y="114" type="line"/>
    </contour>
    <contour>
      <point x="921" y="0" type="line"/>
      <point x="1041" y="0" type="line"/>
      <point x="1041" y="550" type="line"/>
      <point x="921" y="482" type="line"/>
    </contour>
    <contour>
      <point x="1003" y="550" type="line"/>
      <point x="832" y="486" type="line"/>
      <point x="832" y="455" type="line"/>
      <point x="1004" y="335" type="line"/>
      <point x="1041" y="550" type="line"/>
    </contour>
    <contour>
      <point x="1111" y="0" type="move" name="ogonek"/>
    </contour>
  </outline>
</glyph>
<glyph name="longs_t.liga" format="1">
  <advance width="869"/>
  <outline>
    <contour>
      <point x="319" y="853"/>
      <point x="143" y="722"/>
      <point x="143" y="560" type="curve" smooth="yes"/>
      <point x="143" y="0" type="line"/>
      <point x="263" y="0" type="line"/>
      <point x="263" y="608" type="line" smooth="yes"/>
      <point x="263" y="713"/>
      <point x="319" y="769"/>
      <point x="386" y="769" type="curve" smooth="yes"/>
      <point x="443" y="769"/>
      <point x="520" y="712"/>
      <point x="557" y="614" type="curve"/>
      <point x="657" y="722" type="line"/>
      <point x="620" y="785"/>
      <point x="519" y="853"/>
      <point x="454" y="853" type="curve" smooth="yes"/>
    </contour>
    <contour>
      <point x="25" y="501" type="line"/>
      <point x="25" y="460" type="line"/>
      <point x="203" y="460" type="line"/>
      <point x="203" y="501" type="line"/>
    </contour>
    <contour>
      <point x="54" y="31" type="line"/>
      <point x="54" y="0" type="line"/>
      <point x="383" y="0" type="line"/>
      <point x="403" y="40" type="line"/>
      <point x="160" y="114" type="line"/>
    </contour>
    <component base="t" xOffset="413"/>
  </outline>
</glyph>
<glyph name="nine.numr" format="1">
  <advance width="607"/>
  <outline>
    <contour>
      <point x="196" y="822"/>
      <point x="70" y="717"/>
      <point x="70" y="617" type="curve" smooth="yes"/>
      <point x="70" y="513"/>
      <point x="172" y="434"/>
      <point x="308" y="434" type="curve"/>
      <point x="333" y="476" type="line"/>
      <point x="247" y="502"/>
      <point x="174" y="560"/>
      <point x="174" y="649" type="curve" smooth="yes"/>
      <point x="174" y="718"/>
      <point x="208" y="753"/>
      <point x="272" y="753" type="curve" smooth="yes"/>
      <point x="375" y="753"/>
      <point x="423" y="679"/>
      <point x="423" y="594" type="curve" smooth="yes"/>
      <point x="423" y="489"/>
      <point x="344" y="385"/>
      <point x="131" y="269" type="curve"/>
      <point x="150" y="230" type="line"/>
      <point x="457" y="367"/>
      <point x="527" y="486"/>
      <point x="527" y="627" type="curve" smooth="yes"/>
      <point x="527" y="736"/>
      <point x="441" y="822"/>
      <point x="319" y="822" type="curve" smooth="yes"/>
    </contour>
  </outline>
</glyph>
<glyph name="one.numr" format="1">
  <advance width="427"/>
  <outline>
    <contour>
      <point x="88" y="447" type="line"/>
      <point x="88" y="415" type="line"/>
      <point x="331" y="415" type="line"/>
      <point x="347" y="453" type="line"/>
      <point x="173" y="505" type="line"/>
    </contour>
    <contour>
      <point x="166" y="815" type="line"/>
      <point x="166" y="415" type="line"/>
      <point x="262" y="415" type="line"/>
      <point x="262" y="815" type="line"/>
    </contour>
    <contour>
      <point x="339" y="783" type="line"/>
      <point x="339" y="815" type="line"/>
      <point x="96" y="815" type="line"/>
      <point x="80" y="777" type="line"/>
      <point x="254" y="725" type="line"/>
    </contour>
  </outline>
</glyph>
<glyph name="rupeeIndian.deva" format="1">
  <advance width="709"/>
  <outline>
    <contour>
      <point x="401" y="224"/>
      <point x="487" y="312"/>
      <point x="487" y="430" type="curve" smooth="yes"/>
      <point x="487" y="533"/>
      <point x="421" y="665"/>
      <point x="255" y="746" type="curve"/>
      <point x="159" y="745" type="line"/>
      <point x="297" y="687"/>
      <point x="347" y="557"/>
      <point x="347" y="463" type="curve" smooth="yes"/>
      <point x="347" y="434"/>
      <point x="342" y="408"/>
      <point x="334" y="389" type="curve"/>
      <point x="402" y="410" type="line"/>
      <point x="337" y="435"/>
      <point x="280" y="448"/>
      <point x="238" y="448" type="curve" smooth="yes"/>
      <point x="188" y="448"/>
      <point x="158" y="430"/>
      <point x="158" y="398" type="curve" smooth="yes"/>
      <point x="158" y="335"/>
      <point x="271" y="224"/>
      <point x="340" y="224" type="curve" smooth="yes"/>
    </contour>
    <contour>
      <point x="612" y="10" type="line"/>
      <point x="268" y="314" type="line"/>
      <point x="236" y="276" type="line"/>
      <point x="579" y="-27" type="line"/>
    </contour>
    <contour>
      <point x="679" y="538" type="line"/>
      <point x="679" y="576" type="line"/>
      <point x="638" y="609" type="line"/>
      <point x="32" y="609" type="line"/>
      <point x="32" y="571" type="line"/>
      <point x="73" y="538" type="line"/>
    </contour>
    <contour>
      <point x="679" y="715" type="line"/>
      <point x="679" y="753" type="line"/>
      <point x="638" y="786" type="line"/>
      <point x="32" y="786" type="line"/>
      <point x="32" y="748" type="line"/>
      <point x="73" y="715" type="line"/>
    </contour>
  </outline>
</glyph>
<glyph name="seven.numr" format="1">
  <advance width="552"/>
  <outline>
    <contour>
      <point x="70" y="687" type="line"/>
      <point x="100" y="677" type="line"/>
      <point x="150" y="783" type="line"/>
      <point x="88" y="730" type="line"/>
      <point x="432" y="730" type="line"/>
      <point x="446" y="792" type="line"/>
      <point x="123" y="246" type="line"/>
      <point x="172" y="230" type="line"/>
      <point x="492" y="777" type="line"/>
      <point x="492" y="815" type="line"/>
      <point x="120" y="815" type="line"/>
      <point x="70" y="827" type="line"/>
    </contour>
  </outline>
</glyph>
<glyph name="six.numr" format="1">
  <advance width="617"/>
  <outline>
    <contour>
      <point x="160" y="891"/>
      <point x="90" y="768"/>
      <point x="90" y="624" type="curve" smooth="yes"/>
      <point x="90" y="502"/>
      <point x="176" y="408"/>
      <point x="298" y="408" type="curve" smooth="yes"/>
      <point x="420" y="408"/>
      <point x="547" y="512"/>
      <point x="547" y="613" type="curve" smooth="yes"/>
      <point x="547" y="717"/>
      <point x="441" y="795"/>
      <point x="300" y="795" type="curve"/>
      <point x="276" y="754" type="line"/>
      <point x="366" y="728"/>
      <point x="443" y="670"/>
      <point x="443" y="580" type="curve" smooth="yes"/>
      <point x="443" y="512"/>
      <point x="409" y="477"/>
      <point x="344" y="477" type="curve" smooth="yes"/>
      <point x="242" y="477"/>
      <point x="194" y="561"/>
      <point x="194" y="656" type="curve" smooth="yes"/>
      <point x="194" y="767"/>
      <point x="273" y="874"/>
      <point x="486" y="994" type="curve"/>
      <point x="467" y="1033" type="line"/>
    </contour>
  </outline>
</glyph>
